<svg xmlns="http://www.w3.org/2000/svg" xmlns:xlink="http://www.w3.org/1999/xlink" width="40" height="42" version="1.1" viewBox="0 0 40 42"><title>Group 3</title><desc>Created with Sketch.</desc><g id="Page-1" fill="none" fill-rule="evenodd" stroke="none" stroke-width="1"><g id="bitpay.com/card/US/fees" fill="#4F6EF7" transform="translate(-468.000000, -1339.000000)"><g id="Group-3" transform="translate(468.000000, 1339.000000)"><path id="Path" d="M27.299387,35.2852478 C24.7428431,35.2852478 22.6703548,33.2285562 22.6703548,30.6914988 C22.6703548,28.1544412 24.7428431,26.0977497 27.299387,26.0977497 C29.8559307,26.0977497 31.9284191,28.1544412 31.9284191,30.6914988 C31.9284191,31.9098367 31.440719,33.0782746 30.5726072,33.9397701 C29.7044948,34.801265 28.5270825,35.2852478 27.299387,35.2852478 L27.299387,35.2852478 Z"/><polygon id="Path" points="38.465 14.789 24.592 21.429 22.518 13.196 33.098 2.321 30.759 0 17.992 12.231 .373 10.361 0 12.96 14.948 15.617 17.389 25.306 17.711 41.848 21.017 41.848 21.348 27.314 39.941 17.717"/></g></g></g></svg>